<svg width="556" height="110" viewBox="0 0 556 110" fill="none" xmlns="http://www.w3.org/2000/svg">
<path d="M294.439 100.374C298.473 100.767 302.427 100.052 306.37 99.0342C306.821 98.8383 307.143 98.6126 307.315 98.3779C311.402 99.2206 315.501 97.8358 319.606 97.1387C321.685 97.2251 322.624 96.5159 323.835 96.007C325.488 96.2865 327.043 96.7921 329.188 95.7443C331.238 95.3781 333.265 95.0236 335.316 94.6575C336.284 94.4096 337.227 94.1646 338.17 93.9197C347.434 93.0007 356.53 91.717 365.313 89.6833L365.42 89.7423C367.822 89.8264 368.225 89.0103 369.23 88.4451C374.584 89.8898 376.526 86.2645 380.668 86.3051C388.228 86.373 394.225 84.3808 400.505 82.6771C407.161 82.6904 411.836 78.9941 418.809 79.578C421.063 79.8852 422.594 78.9097 424.477 78.6078C426.752 78.0276 429.051 77.4444 431.326 76.8641C434.381 76.7733 435.172 75.6611 436.885 74.968C439.464 75.4874 441.087 74.662 442.737 73.8601L443.109 74.0577L443.84 73.9181C448.531 73.7511 450.54 71.7539 454.471 71.0594C461.146 71.2314 458.874 69.2903 460.243 68.2175C463.266 68.2734 465.851 70.1241 469.488 67.56C471.673 67.7054 473.678 67.586 475.048 66.522C479.28 65.4166 481.79 63.441 486.844 62.7575C488.796 62.4029 493.132 62.3939 489.375 61.1816C490.183 60.6307 491.226 59.5426 492.712 60.0921C496.617 61.5104 496.877 59.6919 498.404 58.9045C503.002 59.2134 505.21 57.6485 507.968 56.5109C514.671 55.6515 516.313 52.6515 522.231 51.4731C521.466 51.3305 520.702 51.1879 519.937 51.0454C521.501 48.868 528.3 51.1619 529.56 48.7342C530.329 46.7933 531.098 44.8523 531.867 42.9114C530.665 42.2302 529.718 41.3849 531.446 40.6008C529.718 41.3849 530.641 42.2331 531.867 42.9114C531.098 44.8523 530.329 46.7933 529.56 48.7342C536.031 46.3197 537.571 43.3048 541.361 40.5618C542.445 39.8175 543.505 39.085 544.589 38.3407C546.237 36.6719 554.467 36.5002 552.992 34.1258C554.632 33.0212 557.967 31.7084 552.579 31.4655C557.01 28.8707 551.183 27.857 550.374 26.0658C550.107 25.695 549.839 25.3242 549.571 24.9534C550.058 23.7965 550.545 22.6396 551.057 21.4799C551.493 19.891 549.065 19.3807 545.397 19.3469C544.25 18.704 547.433 17.1588 543.439 17.1008C542.076 14.2036 534.371 13.7504 529.694 12.1277C527.52 11.4446 525.673 10.5711 523.078 10.1251C520.713 9.72367 521.019 6.38892 514.627 9.68804C513.546 10.2442 512.827 9.64038 512.822 9.38177C512.786 7.38342 507.42 7.74594 504.592 7.00565C503.173 5.53644 499.782 5.52381 495.633 6.06507C492.115 4.5476 488.312 4.21678 483.79 6.87606C483.337 6.8399 482.906 6.78321 482.5 6.71481L481.948 4.35692C474.816 5.38299 471.876 2.00064 464.125 3.69843C463.737 4.00328 463.325 4.31101 462.938 4.62468C463.032 4.79237 463.127 4.96006 463.22 5.11893C463.126 4.95124 463.031 4.78355 462.937 4.61586C463.325 4.31102 463.737 4.00328 464.125 3.69843C463.175 2.61218 459.392 3.29817 457.607 2.73921C456.614 0.656671 453.548 1.92888 450.691 2.85474C447.724 2.63137 449.572 -0.938343 442.299 1.85652C439.226 1.36846 435.654 1.51122 431.994 1.76253C435.781 -1.43599 427.212 3.05777 428.721 1.27114C426.238 -1.40503 422.429 1.80519 419.304 1.94003C415.2 1.16193 411.052 0.4337 405.273 1.73871L405.277 1.77398C403.985 1.80961 402.692 1.83642 401.4 1.87205C400.362 0.0362677 398.468 0.0354344 392.95 1.86404C390.406 1.63564 388.238 1.85465 387.04 3.11295C381.932 4.60736 379.753 1.54683 374.521 3.26139C372.12 3.40061 369.716 5.2119 367.158 3.38485C365.255 2.03516 365.116 4.0361 364.333 4.58407C361.689 3.92936 357.321 4.9345 354.759 3.70692C352.619 2.68001 350.658 4.43929 349.005 5.22356C347.255 4.54418 345.443 3.97048 342.624 5.42831C340.204 4.77405 337.607 4.52497 333.863 4.68796C327.836 4.94043 322.089 5.87523 316.249 6.65997C315.11 6.50783 313.971 6.36452 312.856 6.20949C308.734 6.55097 303.566 7.53395 300.673 7.0962C294.379 6.13743 295.894 8.21219 294.278 9.09056C290.443 9.75588 294.531 7.63937 291.654 7.97747C288.769 8.03049 286.593 8.5992 285.1 9.67765C281.704 8.78048 281.047 5.94337 273.075 8.31074C269.331 9.95774 264.34 10.7589 259.812 11.8812C257.753 12.6059 255.749 13.3689 253.022 13.4928C253.699 12.6801 258.31 10.9849 254.032 11.2732C247.653 11.7101 240.332 11.1313 234.301 13.8875C233.203 14.0881 232.105 14.2886 231.007 14.4892C230.496 14.3883 221.609 13.8416 221.416 13.9C219.104 13.7338 217.203 14.1003 215.664 15.0053C212.844 14.55 208.639 14.4006 206.414 15.1896C200.026 17.4602 193.69 17.2037 187.269 17.7081C182.941 17.7788 178.651 17.7556 174.262 17.9496C171.387 18.082 171.169 18.778 172.296 19.4591C169.467 19.9883 166.637 20.5087 163.784 21.0408C159.174 19.7768 155.014 21.0703 150.887 22.646C147.298 22.4332 144.704 23.2655 142.504 24.4807C138.53 23.1151 136.309 24.5741 134.057 25.9832C130.473 25.6057 128.39 25.9728 127.806 27.0844C123.346 29.8526 118.368 27.577 113.739 28.7021C108.485 28.3184 106.473 31.1296 101.84 31.3702C103.2 28.9485 101.311 28.7772 95.6702 30.4058C91.2347 31.687 93.5165 33.2872 90.5491 34.5479C89.3698 34.4809 88.214 34.4022 87.0347 34.3352C87.0993 33.6124 87.1639 32.8896 87.2438 32.0846C83.1675 33.0286 85.774 34.6353 81.7957 35.3533C78.5162 36.0785 75.2377 36.8125 71.9336 37.5406L71.2269 37.6773L71.1094 37.9503C66.4719 37.512 61.6148 36.9029 59.1151 40.0217C58.6579 40.585 58.7004 40.9465 56.8881 41.0076C48.0255 41.3073 42.7965 43.6831 38.4451 46.5278C35.7344 47.4275 31.8895 48.2192 30.4903 49.2508C26.8458 51.9589 15.5333 53.6819 18.5656 57.2143C6.9976 61.6404 2.91548 66.5633 2.07414 71.7042C-1.0668 73.3965 3.3508 74.0841 2.98274 75.4058C1.76001 75.8177 2.28802 76.0686 2.9389 76.3049C3.18725 77.3575 1.31535 78.8201 5.04923 79.2037C8.18743 80.0328 4.89131 82.1009 7.83487 82.9707C6.92624 84.5705 13.1697 83.8277 12.6451 85.3018C10.8856 87.2966 17.4394 85.8021 18.4394 87.3116C20.93 91.1133 29.8986 92.5623 40.1588 93.1264C47.9622 95.9013 58.6286 96.7395 70.1732 96.9917L70.6652 97.1484L71.3975 97.0177C72.8668 97.8552 74.0157 98.9359 78.2454 97.813C87.4166 99.0772 94.5854 101.542 104.919 102.098C106.134 103.734 111.652 103.184 114.184 104.156C114.626 106.437 121.85 104.488 124.08 105.648C123.805 106.914 124.615 107.444 128.1 106.14C128.766 106.08 129.432 106.02 130.098 105.959C131.535 106.309 132.726 106.902 134.427 106.952C140.031 107.134 144.527 108.912 151.66 107.045L151.999 107.167L152.544 107.138C153.511 109.429 158.641 108.755 163.356 108.371L163.43 108.362C166.123 109.011 169.042 109.455 173.066 108.704C187.089 108.629 200.401 109.711 215.462 107.86C217.387 108.966 220.64 108.441 223.667 107.897C227.01 107.29 230.194 105.968 233.697 106.718C236.631 107.079 239.411 108.04 242.947 106.105C244.084 106.239 245.352 106.635 246.306 106.479C257.668 104.544 269.016 103.121 280.419 102.809C284.912 101.807 290.399 102.476 294.266 100.385L294.439 100.374ZM200.86 18.4081C201.857 17.9781 202.791 17.6538 203.644 17.4909C202.766 17.6567 201.832 17.981 200.86 18.4081ZM212.828 16.322C212.236 16.5882 211.923 16.8932 212.368 17.2879C211.923 16.8932 212.237 16.5971 212.828 16.322ZM167.326 23.1901C166.585 23.0358 165.87 22.8875 165.129 22.7332C165.87 22.8875 166.586 23.0446 167.326 23.1901ZM123.022 30.7041C122.671 30.4772 122.302 30.306 121.915 30.1906C122.303 30.3148 122.672 30.486 123.022 30.7041ZM100.388 32.1666C100.296 32.4368 100.225 32.6864 100.25 32.8981C100.225 32.6864 100.297 32.4456 100.388 32.1666ZM112.188 31.1998C109.82 31.8269 107.45 32.4451 105.107 33.0782C107.449 32.4363 109.82 31.8269 112.188 31.1998ZM324.627 8.59853C330.025 8.29485 335.448 7.99709 340.846 7.6934C340.606 7.13164 340.166 6.57536 341.023 6.01873C340.165 6.56655 340.63 7.12875 340.846 7.6934C335.447 7.98827 330.025 8.29485 324.627 8.59853ZM70.5773 39.1482C71.6319 39.4266 71.9295 39.8386 71.9353 40.3117C71.9295 39.8386 71.6308 39.4177 70.5773 39.1482ZM149.973 30.558C151.153 30.6338 152.335 30.7184 153.539 30.7914C152.358 30.7067 151.178 30.6309 149.973 30.558ZM214.944 100.054C216.543 100.304 218.143 100.554 219.767 100.801C218.167 100.551 216.568 100.301 214.944 100.054ZM279.478 88.0166C279.295 88.1544 279.137 88.298 278.98 88.4417C279.113 88.3009 279.295 88.1544 279.478 88.0166ZM236.275 96.4203C235.875 96.6194 235.499 96.8155 235.1 97.0233C235.476 96.8272 235.875 96.6194 236.275 96.4203C238.024 94.9721 240.267 94.333 242.865 94.1707C240.292 94.3301 238.024 94.9721 236.3 96.4174L236.275 96.4203ZM279.951 90.3479C279.951 90.3479 280.181 90.3924 280.283 90.4161C280.181 90.3924 280.054 90.3716 279.951 90.3479ZM264.83 92.3219C265.574 92.2882 266.328 92.3426 267.099 92.3323C266.353 92.3397 265.598 92.2853 264.83 92.3219ZM338.568 85.6394C338.406 85.7478 338.243 85.8474 338.055 85.941C338.243 85.8474 338.405 85.739 338.568 85.6394ZM363.78 82.363C362.68 82.546 361.609 82.7701 360.566 83.009C361.609 82.7701 362.679 82.5372 363.78 82.363ZM285.523 93.8589C286.405 93.7284 287.465 93.4161 288.391 93.2358C287.465 93.4161 286.381 93.7313 285.523 93.8589ZM240.351 99.7138C243.829 100.038 247.438 99.149 251.014 98.6125C247.438 99.149 243.83 100.047 240.351 99.7138ZM301.799 92.375C302.072 92.3697 302.296 92.3613 302.543 92.3412C302.321 92.3672 302.073 92.3785 301.799 92.375ZM301.282 92.6414C301.117 92.7233 300.926 92.7905 300.76 92.8637C300.927 92.7994 301.092 92.7262 301.282 92.6414ZM233.786 99.6273C233.03 99.5553 232.319 99.4422 231.563 99.379C232.319 99.4422 233.054 99.5524 233.786 99.6273ZM295.034 91.4358C295.402 91.5982 295.542 91.7337 295.506 91.8453C295.542 91.7337 295.376 91.5923 295.034 91.4358ZM264.131 94.8537C264.02 94.7594 263.859 94.6621 263.648 94.5618C263.859 94.6621 264.019 94.7506 264.131 94.8537ZM328.268 86.6444C327.562 87.2102 326.854 87.7671 326.173 88.33C326.879 87.7642 327.585 87.1985 328.268 86.6444ZM310.73 89.0545C309.403 89.425 308.075 89.7868 306.747 90.1573C305.841 90.0762 304.959 90.001 304.053 89.9198C305.893 87.7636 308.264 88.2179 310.731 89.0633L310.73 89.0545ZM258.662 93.9142C258.057 93.8601 257.477 93.8031 256.897 93.7461C257.478 93.8119 258.058 93.8689 258.662 93.9142ZM205.014 97.0016C205.639 97.0176 206.283 96.9865 206.921 96.9026C206.258 96.9806 205.614 97.0205 205.014 97.0016ZM226.384 100.479C226.263 100.932 226.926 101.274 227.808 101.573C228.147 101.694 228.535 101.818 228.923 101.933C228.535 101.818 228.171 101.691 227.808 101.573C226.925 101.265 226.263 100.932 226.384 100.479ZM315.542 91.8234C314.952 91.6783 314.102 91.6619 312.734 91.8943C314.102 91.6619 314.976 91.6754 315.542 91.8234ZM312.708 91.8883C310.486 91.64 308.263 91.3917 306.065 91.1404C308.288 91.3888 310.51 91.6371 312.708 91.8883ZM398.621 80.6457C394.895 81.3876 390.932 82.6581 387.505 82.7659C390.932 82.6581 394.894 81.3788 398.621 80.6457C403.226 80.5961 406.245 79.1328 409.747 77.9702C406.244 79.124 403.226 80.5961 398.621 80.6457ZM428.688 75.6276C430.222 74.2583 432.825 73.5053 435.88 72.9854C432.851 73.5113 430.222 74.2583 428.689 75.6364L428.688 75.6276ZM371.074 80.1736C370.343 80.3132 369.612 80.4528 368.882 80.6012C367.564 81.0511 366.877 81.7844 365.401 82.1635C366.902 81.7815 367.564 81.0511 368.882 80.6012C369.613 80.4616 370.344 80.322 371.074 80.1736ZM461.39 67.3676C461.31 67.3233 461.277 67.2557 461.197 67.2114C461.253 67.2674 461.31 67.3233 461.39 67.3676ZM421.769 71.0501C419.592 70.9753 417.087 70.4384 414.708 71.4063C410.007 72.7634 404.977 73.8642 400.116 75.124C404.953 73.8671 410.007 72.7634 414.708 71.4063C417.063 70.4501 419.592 70.9753 421.769 71.0501ZM484.424 61.4685C481.863 61.5193 479.866 61.9149 478.11 62.461C479.866 61.9149 481.887 61.5164 484.424 61.4685ZM451.299 64.4323C449.517 64.7491 447.705 65.0246 445.893 65.3002C447.706 65.0335 449.518 64.7579 451.299 64.4323ZM469.393 7.16477C468.362 7.08925 467.473 6.9523 466.679 6.76852C467.473 6.9523 468.337 7.09214 469.393 7.16477ZM435.869 4.82938C434.631 5.10902 433.544 5.19208 432.544 5.16658C433.569 5.18919 434.656 5.10613 435.869 4.82938ZM442.778 4.02619C440.5 4.15096 438.232 4.3639 435.891 4.80003C438.233 4.37272 440.525 4.14807 442.778 4.02619ZM72.5597 42.8666C71.879 42.589 71.6859 42.2184 71.713 41.8129C71.7104 42.2155 71.879 42.589 72.5842 42.8637L72.5597 42.8666ZM47.1478 47.6236C46.8153 47.9756 46.0209 48.4266 45.6178 48.8137C46.0455 48.4237 46.8399 47.9727 47.1478 47.6236ZM37.8449 56.4769C37.7151 56.6441 37.6353 56.8144 37.5567 56.9935C37.6353 56.8144 37.7396 56.6412 37.8449 56.4769ZM6.63841 74.0643C6.52084 73.488 6.76275 72.7891 6.37994 72.2888C6.76275 72.7891 6.51981 73.4792 6.63841 74.0643ZM9.03981 76.2583C9.87819 75.7575 10.692 75.2595 11.5294 74.7499C13.8224 74.1138 15.7076 73.4005 17.2136 72.6424C15.682 73.3946 13.8214 74.105 11.5294 74.7499C10.691 75.2507 9.87715 75.7487 9.03981 76.2583ZM39.5345 89.0875C39.6614 89.743 39.7084 90.3544 39.746 90.8863C39.6827 90.3484 39.6369 89.7459 39.5345 89.0875ZM68.4953 88.866C63.2296 88.3853 57.1595 88.4819 52.2644 87.761C50.7523 87.8315 49.2413 87.9108 47.7046 87.9841C49.2167 87.9136 50.7277 87.8344 52.2644 87.761C57.1595 88.4819 63.2553 88.3912 68.4953 88.866C69.5538 88.965 70.5641 89.0787 71.5294 89.2335C70.5641 89.0787 69.5527 88.9562 68.4953 88.866ZM40.467 92.9918C40.467 92.9918 40.3493 93.0504 40.2551 93.0972L40.467 92.9918ZM67.5084 93.1926C67.2944 93.2803 67.106 93.374 66.9668 93.4619C67.1295 93.3623 67.2944 93.2803 67.5084 93.1926ZM126.495 91.6321C125.98 91.9161 125.403 92.3058 124.729 92.5102C125.378 92.3087 125.954 91.9102 126.494 91.6233L126.495 91.6321ZM150.945 94.5959C151.838 94.3479 152.734 94.1264 153.676 94.0783C155.308 94.1815 156.874 94.3638 158.464 94.5257C156.899 94.3609 155.332 94.1786 153.676 94.0783C152.734 94.1264 151.837 94.3391 150.945 94.5959ZM161.95 92.5873C165.397 92.4413 168.762 92.448 171.854 92.8803C168.762 92.448 165.42 92.4296 161.949 92.5784L161.95 92.5873ZM191.566 89.8839C190.513 89.8377 189.461 89.7916 188.408 89.7366C186.354 89.8618 187.275 86.4636 182.687 89.6223C179.007 89.277 177.166 90.7897 174.476 91.4367C170.31 91.6224 170.096 88.5276 166.54 89.8664C161.289 91.8425 158.468 90.9582 155.401 90.523C151.296 89.9506 151.854 91.3065 150.609 91.9534C149.997 90.5593 143.377 91.0692 144.06 90.0949C145.805 87.5476 140.185 89.5671 138.999 89.0181C135.915 91.4099 131.478 90.1345 127.706 90.6942C126.164 90.5177 124.645 90.3119 123.02 91.1198C120.048 89.7973 117.504 88.5051 110.945 88.9005C106.217 89.1791 101.087 87.5203 99.7116 86.8417C92.5936 83.3246 87.4502 86.8525 81.5597 88.6892C77.7518 86.6158 68.1302 87.8808 64.5015 85.6343C62.3246 84.2899 60.6317 87.0636 58.2725 86.5006C58.2548 85.5014 57.4648 84.7181 54.939 84.4339C48.3433 84.5119 44.8598 82.8652 40.5101 81.6958C40.8921 80.0685 36.809 80.5306 34.5208 80.1469C35.0914 78.6405 29.9806 79.0535 29.5201 77.8918C26.8434 75.9 27.2138 73.3265 26.8 71.0776C26.4532 69.1874 23.1256 66.9591 28.8719 64.5315C32.622 63.3576 37.6741 59.6885 37.0006 58.6234C37.9681 58.161 38.91 57.6927 39.8776 57.2303C41.953 57.0757 43.1931 56.5992 43.6254 55.8243C46.9484 55.4694 49.5292 54.737 51.05 53.4676C54.1815 53.1799 54.715 52.2054 55.685 51.3404C57.7575 50.5246 61.3418 50.9079 62.7815 49.5855C65.8158 49.3182 66.2416 48.2758 67.596 47.4998C71.1581 48.1181 73.8278 47.2947 76.2142 45.9683C79.1941 45.6627 82.0878 45.26 84.7032 44.3983C88.52 44.0033 90.5737 42.8143 92.783 41.6785C96.2426 42.2732 99.439 41.4773 102.582 40.4374C104.652 40.4533 105.494 39.7644 106.603 39.2405C110.312 39.8327 113.531 38.8018 116.754 37.8149C120.386 38.6039 123.577 36.9058 126.972 36.5335C130.787 36.3354 133.301 35.0297 136.426 34.2602C141.688 35.1346 146.318 34.2416 150.564 32.196C153.169 32.3011 155.775 32.4238 158.602 31.6625C162.947 31.3126 167.708 31.951 171.23 29.6864C172.354 29.4917 173.453 29.3 174.577 29.1053C178.011 29.694 181.466 29.4041 184.975 28.0887C192.929 28.3249 200.73 26.8359 208.568 25.4586C212.544 25.1432 216.52 24.8279 220.496 24.5214C228.797 23.4653 237.258 23.3558 245.432 21.4385C253.782 21.6549 262.591 20.6821 271.249 20.1293C272.016 20.0838 272.97 19.2922 273.864 18.8385C281.626 18.5072 289.282 18.7517 297.301 17.2102C299.958 16.7012 300.739 17.1994 301.532 17.7946C305.03 17.6605 308.576 17.932 311.959 16.5958C320.192 14.5463 327.779 15.6928 335.8 14.8037C340.967 14.2321 345.979 14.68 351.257 13.5679C353.492 13.5018 354.953 14.4745 357.817 13.6104C358.299 13.6789 358.796 13.6652 359.357 13.5635C362.468 13.9488 365.542 14.4456 368.827 12.7096C372.201 14.2708 376.373 12.6541 380.324 11.9214C385.135 10.8642 387.095 14.3886 392.889 11.7319C408.171 11.5537 423.455 11.3843 438.737 11.2061C443.027 11.6495 446.656 12.6265 451.944 12.2374C456.428 11.7996 457.233 15.2542 463.783 12.6606C464.817 12.7714 465.853 12.891 466.888 13.0018C469.099 14.8429 474.39 14.4802 479.288 14.3783C491.699 16.701 504.696 18.7046 515.958 21.6451C517.375 23.7314 523.731 23.7353 526.976 25.0524C530.64 28.4479 531.002 31.9456 525.908 36.317C522.873 38.9175 517.621 40.8848 513.379 42.7512C507.242 45.4572 498.753 47.4562 493.89 50.8172C492.345 51.8838 485.851 49.8579 484.802 52.8062C482.104 54.0262 475.407 53.4545 475.576 55.9556C474.707 56.192 473.837 56.4283 472.992 56.6617C469.39 55.914 463.687 57.2279 463.398 57.9502C462.356 60.5312 457.198 59.9039 454.536 60.7978C448.181 62.9215 437.155 61.7858 434.438 66.2354C433.956 67.0073 431.137 67.1956 429.124 67.0388C422.756 66.5089 419.015 68.1824 415.873 70.2949C412.214 71.181 407.729 69.7056 406.68 70.5352C401.104 74.838 392.053 74.3821 383.989 75.33C381.209 75.8534 378.429 76.3768 375.625 76.9031C374.998 76.8695 374.346 76.8388 373.718 76.7965C370.424 76.9691 368.234 77.8523 366.286 78.8769C364.689 79.0736 363.117 79.2673 361.52 79.464C356.471 80.6117 351.421 81.7595 346.371 82.8985C342.639 82.1035 339.495 83.1345 336.419 84.3186C332.785 83.512 329.777 83.794 327.798 85.8324C324.804 85.8 322.184 84.0786 318.68 86.5019C316.911 86.9333 314.302 86.3639 313.178 87.6135C312.627 87.8034 312.23 88.0289 311.96 88.2752C308.729 86.0266 302.873 87.5195 297.51 88.3287C296.256 85.9283 291.425 85.9687 285.414 86.7824C284.642 86.1491 286.94 84.2788 281.575 85.4994C280.113 87.0569 276.561 86.3123 274.352 87.0278C272.119 87.9608 268.985 84.8337 267.234 87.9628C266.308 88.1432 265.357 88.3264 264.433 88.5156C261.845 88.5516 261.564 87.6459 260.26 87.1555C257.503 87.2382 257.215 84.3666 252.343 87.0222C249.017 86.5013 245.955 86.5305 243.886 88.4365C239.329 89.1062 235.549 88.9694 232.545 88.0084C232.458 87.9024 232.462 87.732 232.259 87.6934C225.833 86.464 215.601 89.7408 210.202 87.2821C209.783 87.7426 209.338 88.1972 208.918 88.6578C203.159 89.0665 197.423 89.4636 191.664 89.8723L191.566 89.8839ZM194.526 94.9266C190.191 94.5154 186.934 96.2839 183.863 98.5669C183.31 98.5247 182.78 98.4708 182.25 98.4168C182.78 98.4708 183.333 98.513 183.863 98.5669C186.959 96.281 190.191 94.5154 194.526 94.9266ZM213.393 94.497C214.017 94.5041 214.615 94.5053 215.16 94.477C214.591 94.5082 213.992 94.507 213.393 94.497C210.947 94.4627 208.284 94.284 207.276 95.2518C208.284 94.284 210.921 94.4568 213.393 94.497ZM252.229 89.8695C251.757 90.0949 251.181 90.2788 250.552 90.4422C251.181 90.2788 251.756 90.086 252.229 89.8695ZM166.9 94.8393C165.713 94.9163 164.617 94.9288 163.543 94.9031C164.617 94.9288 165.737 94.9134 166.9 94.8393C166.742 95.4032 166.829 95.9294 167.159 96.409C166.829 95.9294 166.743 95.412 166.9 94.8393ZM228.221 89.3927C224.17 89.699 220.093 90.0083 216.042 90.3147C214.289 90.6726 212.538 91.0394 210.81 91.3945C212.563 91.0365 214.314 90.6697 216.042 90.3147C220.093 90.0083 224.17 89.699 228.221 89.3927C228.593 89.1613 228.992 88.9534 229.443 88.7574C228.991 88.9446 228.593 89.1613 228.221 89.3927ZM158.625 99.075C157.502 98.8583 156.851 98.6131 156.695 98.3542C156.851 98.6131 157.501 98.8495 158.625 99.075C158.461 99.1658 158.346 99.2508 158.182 99.3416C158.322 99.2537 158.461 99.1658 158.625 99.075ZM164.051 102.407C159.205 102.744 156.12 102.579 155.978 101.576C156.121 102.588 159.231 102.75 164.051 102.407ZM210.551 101.491C210.244 102.904 210.828 103.846 214.111 103.361C210.853 103.843 210.245 102.913 210.551 101.491ZM320.302 93.7313C321.515 93.8659 322.727 94.0006 323.938 94.1264C322.726 93.9918 321.514 93.8571 320.302 93.7313ZM313.57 95.6133C312.565 96.1785 311.613 96.7731 309.655 96.8691C309.26 97.1123 308.865 97.3554 308.445 97.6014C308.84 97.3583 309.235 97.1151 309.655 96.8691C311.613 96.7731 312.566 96.1873 313.57 95.6133Z" fill="#7F3DD2"/>
</svg>
